<svg width="26" height="25" viewBox="0 0 26 25" fill="none" xmlns="http://www.w3.org/2000/svg">
<path d="M22.0071 0.00488281C22.4213 0.0253175 22.827 0.106728 23.2121 0.243164C23.4704 0.334671 23.7194 0.450957 23.9553 0.59082C24.0729 0.660584 24.1874 0.736153 24.2981 0.817383C24.4642 0.939274 24.6218 1.07407 24.7697 1.2207L24.9133 1.37012C25.0023 1.46763 25.0864 1.56915 25.1653 1.67383C25.1828 1.69715 25.199 1.72146 25.216 1.74512C25.2349 1.77124 25.2545 1.79673 25.2727 1.82324L25.2942 1.85547C25.2976 1.86056 25.3005 1.86598 25.3039 1.87109C25.3337 1.91587 25.3628 1.96102 25.3908 2.00684C25.4027 2.02628 25.4144 2.04581 25.426 2.06543C25.4846 2.16487 25.5391 2.2664 25.5891 2.37012C25.5955 2.3835 25.6023 2.39671 25.6086 2.41016C25.6281 2.45174 25.6462 2.49394 25.6643 2.53613C25.6753 2.56175 25.686 2.58745 25.6965 2.61328C25.7401 2.72096 25.7792 2.83037 25.8137 2.94141C25.816 2.94888 25.8183 2.95638 25.8205 2.96387C25.8334 3.00634 25.8461 3.0489 25.8576 3.0918C25.8662 3.12358 25.8742 3.1555 25.8821 3.1875C25.8847 3.19824 25.8873 3.20896 25.8899 3.21973C25.9015 3.26899 25.9123 3.31844 25.9221 3.36816C25.9736 3.62952 26.0002 3.89686 26.0002 4.16699V15.2773C26.0002 15.6457 25.8528 15.9993 25.5901 16.2598C25.5572 16.2924 25.5232 16.3236 25.4875 16.3525C25.4165 16.4102 25.3402 16.4604 25.26 16.5029C25.2197 16.5243 25.1781 16.5432 25.136 16.5605C25.0938 16.5779 25.0508 16.5932 25.0071 16.6064C24.9199 16.6327 24.83 16.6511 24.7385 16.6602L24.5998 16.667H19.094C19.0364 16.667 18.979 16.6708 18.9221 16.6777C18.7517 16.6987 18.5861 16.7503 18.4338 16.8311C18.2305 16.9389 18.0569 17.095 17.9289 17.2852L14.4055 22.5264C14.3415 22.6216 14.2749 22.7149 14.2053 22.8057C14.1358 22.8963 14.0633 22.9843 13.9885 23.0703C13.7639 23.3286 13.5164 23.5663 13.2483 23.7793C13.0895 23.9054 12.9224 24.0213 12.7502 24.1299C12.6315 24.2048 12.5104 24.2767 12.386 24.3428C12.2751 24.4016 12.1622 24.4557 12.0481 24.5068C11.9585 24.547 11.868 24.5848 11.7766 24.6201C11.7624 24.6256 11.7479 24.6304 11.7336 24.6357C11.6503 24.6671 11.5663 24.6962 11.4817 24.7236C11.4573 24.7315 11.4329 24.7395 11.4084 24.7471C11.212 24.8077 11.0127 24.8576 10.8108 24.8965C10.7747 24.9034 10.7386 24.9098 10.7024 24.916C10.6303 24.9284 10.5581 24.9396 10.4856 24.9492C10.456 24.9531 10.4264 24.9575 10.3967 24.9609C10.294 24.9729 10.1906 24.9829 10.0871 24.9893L9.7424 25H9.4426L9.29026 24.9961C9.25889 24.9944 9.22776 24.99 9.19651 24.9873C9.18578 24.9864 9.17499 24.9864 9.16428 24.9854C9.0899 24.978 9.01603 24.9673 8.9426 24.9541C8.92431 24.9508 8.90613 24.947 8.88791 24.9434C8.81199 24.9281 8.73675 24.9101 8.66233 24.8887C8.65579 24.8868 8.64931 24.8847 8.64279 24.8828C8.514 24.8447 8.38744 24.7985 8.26487 24.7422C8.19075 24.7081 8.11863 24.6701 8.04807 24.6299C8.03831 24.6243 8.02846 24.619 8.01877 24.6133C7.95079 24.5735 7.88478 24.5306 7.82053 24.4854C7.81137 24.4789 7.80227 24.4724 7.79319 24.4658C7.72853 24.4191 7.6661 24.3695 7.60569 24.3174C7.59921 24.3118 7.59258 24.3064 7.58615 24.3008C7.53046 24.2519 7.47672 24.2007 7.42502 24.1475C7.41915 24.1414 7.41228 24.136 7.40647 24.1299L7.3049 24.0176C7.29692 24.0082 7.2903 23.9977 7.28244 23.9883C7.24277 23.9406 7.20446 23.8919 7.16819 23.8418C7.15546 23.8242 7.1424 23.8069 7.1301 23.7891C7.08987 23.7307 7.05239 23.6705 7.01682 23.6094C7.00693 23.5924 6.99802 23.5748 6.9885 23.5576C6.95295 23.4934 6.91922 23.4282 6.88889 23.3613C6.88292 23.3482 6.87805 23.3345 6.87229 23.3213C6.84643 23.2618 6.82167 23.2019 6.80002 23.1406C6.79575 23.1285 6.79046 23.1167 6.78635 23.1045L6.7424 22.96C6.67495 22.717 6.64125 22.4665 6.64182 22.2158C6.64193 22.1657 6.64384 22.1155 6.6467 22.0654C6.65241 21.9652 6.66319 21.8651 6.6799 21.7656L7.53635 16.667H4.20334V13.8887H9.19065L9.34201 13.8975C9.38852 13.9025 9.43498 13.9104 9.48069 13.9199C9.48888 13.9216 9.49694 13.9239 9.5051 13.9258C9.54323 13.9345 9.58108 13.9442 9.61838 13.9561C9.62946 13.9596 9.64059 13.963 9.65158 13.9668C9.68733 13.9791 9.72233 13.9935 9.75705 14.0088C9.76432 14.012 9.77229 14.0143 9.77951 14.0176C9.79501 14.0247 9.80924 14.0343 9.82444 14.042C9.89416 14.0772 9.96104 14.117 10.0237 14.1631C10.1097 14.2264 10.1894 14.2984 10.259 14.3799C10.301 14.429 10.3377 14.482 10.3723 14.5361C10.3884 14.5613 10.4047 14.5862 10.4192 14.6123C10.4272 14.627 10.4341 14.6423 10.4416 14.6572C10.4553 14.6841 10.4679 14.7115 10.4797 14.7393C10.484 14.7494 10.4893 14.7592 10.4934 14.7695C10.5114 14.8148 10.5271 14.8611 10.5403 14.9082C10.5673 15.0053 10.5838 15.1049 10.5891 15.2051C10.5917 15.2551 10.5919 15.3054 10.5891 15.3555C10.5862 15.4058 10.5799 15.456 10.5715 15.5059L9.4426 22.2227H9.7424C9.80005 22.2226 9.85792 22.2203 9.91526 22.2168C10.2591 22.1957 10.5962 22.1121 10.9094 21.9697C10.9616 21.946 11.0129 21.9205 11.0637 21.8936C11.1147 21.8665 11.165 21.8377 11.2141 21.8076C11.2629 21.7777 11.3109 21.7466 11.3576 21.7139C11.4512 21.6484 11.5405 21.5772 11.6252 21.501C11.7948 21.3483 11.9455 21.1748 12.0735 20.9844L15.5979 15.7432H15.5988C15.632 15.6938 15.6681 15.6464 15.7033 15.5986C15.9583 15.2527 16.2643 14.9486 16.6115 14.6963C16.6738 14.651 16.7372 14.6073 16.802 14.5654C16.9025 14.5005 17.0053 14.4382 17.1115 14.3818C17.3402 14.2605 17.579 14.1612 17.8244 14.084C17.881 14.0662 17.9381 14.0507 17.9953 14.0352V2.77734H5.88401C5.56007 2.77699 5.24603 2.8884 4.99533 3.0918L4.90451 3.17188C4.85785 3.21697 4.81526 3.26566 4.77561 3.31641C4.71016 3.40014 4.6542 3.49068 4.60959 3.58691C4.56435 3.68456 4.53053 3.78775 4.50901 3.89453L2.82737 12.2275C2.78674 12.4291 2.79372 12.6375 2.84397 12.8369C2.89421 13.0361 2.98803 13.2221 3.11936 13.3809C3.2508 13.5397 3.41638 13.668 3.60373 13.7559C3.79111 13.8437 3.99607 13.8887 4.20334 13.8887L4.20237 16.667L4.20139 16.666V16.667C4.12376 16.667 4.04627 16.6644 3.96897 16.6602C3.8916 16.6559 3.81438 16.6501 3.73752 16.6416C3.5069 16.616 3.27886 16.5716 3.05588 16.5088C2.83302 16.4461 2.61509 16.3645 2.40451 16.2656C2.33799 16.2344 2.27285 16.2006 2.20822 16.166C2.18121 16.1516 2.15481 16.1361 2.12815 16.1211C2.09547 16.1027 2.06263 16.0847 2.03049 16.0654C1.99218 16.0425 1.95473 16.0183 1.91721 15.9941C1.8954 15.9801 1.87332 15.9666 1.85178 15.9521C1.81386 15.9268 1.77652 15.9006 1.73947 15.874C1.71089 15.8535 1.68256 15.8327 1.65451 15.8115C1.62527 15.7894 1.59625 15.767 1.5676 15.7441C1.53488 15.718 1.50284 15.6911 1.47092 15.6641C1.45525 15.6508 1.43952 15.6376 1.42404 15.624C1.37997 15.5855 1.3366 15.5462 1.29416 15.5059C1.28532 15.4974 1.27559 15.4899 1.26682 15.4814L1.24631 15.4609C1.19809 15.4136 1.15063 15.3651 1.10471 15.3154L0.952365 15.1416C0.856967 15.0262 0.768774 14.9056 0.68674 14.7812C0.676588 14.7659 0.667386 14.7499 0.657443 14.7344C0.629489 14.6908 0.601692 14.6471 0.575412 14.6025C0.562447 14.5806 0.549879 14.5583 0.537326 14.5361C0.508223 14.4846 0.480205 14.4326 0.453342 14.3799C0.449373 14.3721 0.445543 14.3643 0.441623 14.3564C0.411234 14.2959 0.3821 14.2348 0.354709 14.1729C0.351822 14.1663 0.348774 14.1599 0.34592 14.1533C0.320238 14.0944 0.296586 14.0347 0.273654 13.9746C0.26902 13.9625 0.263526 13.9507 0.259006 13.9385C0.233646 13.8701 0.209464 13.8011 0.187717 13.7314L0.125217 13.5098C0.0876263 13.3605 0.0589852 13.2095 0.0383028 13.0576C0.017556 12.9053 0.00485722 12.7521 0.0011934 12.5986C-0.00615607 12.2925 0.0204287 11.9856 0.0812715 11.6836L1.76291 3.34961C1.78674 3.2315 1.81604 3.11488 1.84983 3C1.9005 2.82773 1.96227 2.65948 2.0344 2.49609C2.08234 2.38743 2.13462 2.2808 2.19162 2.17676C2.27746 2.02018 2.37333 1.8691 2.47873 1.72461C2.61895 1.53231 2.77597 1.35152 2.94846 1.18457C3.03484 1.10099 3.12502 1.02072 3.21897 0.944336C3.64172 0.600704 4.12512 0.344629 4.63987 0.186523C5.03988 0.0635927 5.45911 1.44111e-05 5.88401 0H21.7981C21.8678 6.4934e-06 21.9377 0.00146147 22.0071 0.00488281ZM19.9953 13.8887H23.1985V4.16699L23.1916 4.0293C23.1658 3.77162 23.067 3.52727 22.9084 3.32227C22.8714 3.27436 22.8318 3.22773 22.7883 3.18457C22.7226 3.1195 22.6515 3.06106 22.5754 3.01074C22.5372 2.9855 22.4976 2.96276 22.4572 2.94141C22.2965 2.85637 22.1198 2.80223 21.9367 2.78418L21.7981 2.77734H19.9953V13.8887Z" fill="#121212"/>
</svg>
