<svg width="32" height="27" viewBox="0 0 32 27" fill="none" xmlns="http://www.w3.org/2000/svg">
<path d="M17.0703 4.52637C20.2834 1.25373 23.6252 0.983445 26.0869 2.08691C28.6354 3.22946 30.4999 5.94521 30.5 9.17969C30.5 12.5142 29.1126 15.0941 27.085 17.332C25.0058 19.6268 22.388 21.4326 19.9443 23.3193L19.9424 23.3203C19.0991 23.9733 18.3645 24.5312 17.6621 24.9336C16.9598 25.336 16.4269 25.5 16 25.5C15.5734 25.5 15.0407 25.3362 14.3379 24.9336C13.6349 24.5308 12.9008 23.9724 12.0566 23.3203H12.0557C9.61248 21.4318 6.99535 19.6269 4.91602 17.332C2.88804 15.0938 1.50006 12.514 1.5 9.17871C1.5 5.9432 3.36468 3.22792 5.91309 2.08594C8.3747 0.982977 11.7165 1.25356 14.9297 4.52637L16 5.61719L17.0703 4.52637Z" stroke="#121212" stroke-width="3"/>
</svg>
