<svg width="196" height="197" viewBox="0 0 196 197" fill="none" xmlns="http://www.w3.org/2000/svg">
<path d="M97.9326 196.543C152.019 196.543 195.865 152.545 195.865 98.2713C195.865 43.9975 152.019 0 97.9326 0C43.8459 0 0 43.9975 0 98.2713C0 152.545 43.8459 196.543 97.9326 196.543Z" fill="#FF6AA5"/>
<path d="M84.4174 96.8999C89.6185 96.8999 93.8347 92.669 93.8347 87.4499C93.8347 82.2309 89.6185 78 84.4174 78C79.2163 78 75 82.2309 75 87.4499C75 92.669 79.2163 96.8999 84.4174 96.8999Z" fill="black"/>
<path d="M111.16 96.8999C116.361 96.8999 120.577 92.669 120.577 87.4499C120.577 82.2309 116.361 78 111.16 78C105.959 78 101.742 82.2309 101.742 87.4499C101.742 92.669 105.959 96.8999 111.16 96.8999Z" fill="black"/>
<path d="M111.16 119.06C116.361 119.06 120.577 114.829 120.577 109.61C120.577 104.391 116.361 100.16 111.16 100.16C105.959 100.16 101.742 104.391 101.742 109.61C101.742 114.829 105.959 119.06 111.16 119.06Z" fill="black"/>
<path d="M84.4174 119.06C89.6185 119.06 93.8347 114.829 93.8347 109.61C93.8347 104.391 89.6185 100.16 84.4174 100.16C79.2163 100.16 75 104.391 75 109.61C75 114.829 79.2163 119.06 84.4174 119.06Z" fill="black"/>
</svg>
